<svg id="visual" viewBox="0 0 900 600" width="900" height="600" xmlns="http://www.w3.org/2000/svg" xmlns:xlink="http://www.w3.org/1999/xlink" version="1.1"><rect x="0" y="0" width="900" height="600" fill="#1d116e"></rect><path d="M0 397L21.5 394.5C43 392 86 387 128.8 381.2C171.7 375.3 214.3 368.7 257.2 378.5C300 388.3 343 414.7 385.8 420.7C428.7 426.7 471.3 412.3 514.2 412.8C557 413.3 600 428.7 642.8 435.7C685.7 442.7 728.3 441.3 771.2 428.2C814 415 857 390 878.5 377.5L900 365L900 601L878.5 601C857 601 814 601 771.2 601C728.3 601 685.7 601 642.8 601C600 601 557 601 514.2 601C471.3 601 428.7 601 385.8 601C343 601 300 601 257.2 601C214.3 601 171.7 601 128.8 601C86 601 43 601 21.5 601L0 601Z" fill="#69a2fa"></path><path d="M0 432L21.5 428.8C43 425.7 86 419.3 128.8 417.5C171.7 415.7 214.3 418.3 257.2 422C300 425.7 343 430.3 385.8 435.3C428.7 440.3 471.3 445.7 514.2 448C557 450.3 600 449.7 642.8 449.7C685.7 449.7 728.3 450.3 771.2 447.3C814 444.3 857 437.7 878.5 434.3L900 431L900 601L878.5 601C857 601 814 601 771.2 601C728.3 601 685.7 601 642.8 601C600 601 557 601 514.2 601C471.3 601 428.7 601 385.8 601C343 601 300 601 257.2 601C214.3 601 171.7 601 128.8 601C86 601 43 601 21.5 601L0 601Z" fill="#2098d5"></path><path d="M0 459L21.5 458.2C43 457.3 86 455.7 128.8 459C171.7 462.3 214.3 470.7 257.2 469C300 467.3 343 455.7 385.8 458.2C428.7 460.7 471.3 477.3 514.2 481.3C557 485.3 600 476.7 642.8 477.7C685.7 478.7 728.3 489.3 771.2 489.5C814 489.7 857 479.3 878.5 474.2L900 469L900 601L878.5 601C857 601 814 601 771.2 601C728.3 601 685.7 601 642.8 601C600 601 557 601 514.2 601C471.3 601 428.7 601 385.8 601C343 601 300 601 257.2 601C214.3 601 171.7 601 128.8 601C86 601 43 601 21.5 601L0 601Z" fill="#0089a9"></path><path d="M0 540L21.5 537.2C43 534.3 86 528.7 128.8 526.2C171.7 523.7 214.3 524.3 257.2 524.3C300 524.3 343 523.7 385.8 521.7C428.7 519.7 471.3 516.3 514.2 509.8C557 503.3 600 493.7 642.8 488.3C685.7 483 728.3 482 771.2 490.8C814 499.7 857 518.3 878.5 527.7L900 537L900 601L878.5 601C857 601 814 601 771.2 601C728.3 601 685.7 601 642.8 601C600 601 557 601 514.2 601C471.3 601 428.7 601 385.8 601C343 601 300 601 257.2 601C214.3 601 171.7 601 128.8 601C86 601 43 601 21.5 601L0 601Z" fill="#00777d"></path><path d="M0 552L21.5 554.5C43 557 86 562 128.8 565.5C171.7 569 214.3 571 257.2 565.7C300 560.3 343 547.7 385.8 541.2C428.7 534.7 471.3 534.3 514.2 534C557 533.7 600 533.3 642.8 533.3C685.7 533.3 728.3 533.7 771.2 540.3C814 547 857 560 878.5 566.5L900 573L900 601L878.5 601C857 601 814 601 771.2 601C728.3 601 685.7 601 642.8 601C600 601 557 601 514.2 601C471.3 601 428.7 601 385.8 601C343 601 300 601 257.2 601C214.3 601 171.7 601 128.8 601C86 601 43 601 21.5 601L0 601Z" fill="#186252"></path></svg>