<svg xmlns="http://www.w3.org/2000/svg" xmlns:xlink="http://www.w3.org/1999/xlink" width="500" zoomAndPan="magnify" viewBox="0 0 375 374.999991" height="500" preserveAspectRatio="xMidYMid meet" version="1.0"><path fill="#ffcc4d" d="M 375.085938 187.5 C 375.085938 291.050781 291.125 374.996094 187.5625 374.996094 C 83.996094 374.996094 0.0390625 291.050781 0.0390625 187.5 C 0.0390625 83.949219 83.996094 0.00390625 187.5625 0.00390625 C 291.125 0.00390625 375.085938 83.949219 375.085938 187.5 " fill-opacity="1" fill-rule="nonzero"/><path fill="#664500" d="M 229.234375 281.25 C 229.234375 310.03125 210.574219 312.496094 187.5625 312.496094 C 164.539062 312.496094 145.890625 310.03125 145.890625 281.25 C 145.890625 252.488281 164.539062 218.75 187.5625 218.75 C 210.574219 218.75 229.234375 252.488281 229.234375 281.25 Z M 312.578125 156.25 C 311.285156 156.25 309.972656 156.011719 308.710938 155.5 C 254.238281 133.71875 231.910156 100.90625 230.984375 99.523438 C 227.785156 94.730469 229.078125 88.261719 233.871094 85.074219 C 238.652344 81.886719 245.089844 83.15625 248.300781 87.929688 C 248.496094 88.210938 268.40625 116.9375 316.441406 136.144531 C 321.789062 138.292969 324.390625 144.34375 322.257812 149.6875 C 320.621094 153.769531 316.703125 156.25 312.578125 156.25 Z M 62.546875 156.25 C 58.410156 156.25 54.503906 153.769531 52.867188 149.699219 C 50.730469 144.355469 53.324219 138.292969 58.671875 136.15625 C 106.71875 116.949219 126.628906 88.21875 126.824219 87.9375 C 130.035156 83.1875 136.503906 81.929688 141.273438 85.128906 C 146.035156 88.335938 147.328125 94.761719 144.140625 99.53125 C 143.214844 100.917969 120.886719 133.730469 66.421875 155.511719 C 65.152344 156.011719 63.839844 156.25 62.546875 156.25 Z M 62.546875 156.25 " fill-opacity="1" fill-rule="nonzero"/><path fill="#5dadec" d="M 250.070312 166.667969 L 291.742188 166.667969 L 291.742188 364.582031 L 250.070312 364.101562 Z M 83.382812 364.582031 L 125.054688 364.101562 L 125.054688 166.667969 L 83.382812 166.667969 Z M 83.382812 364.582031 " fill-opacity="1" fill-rule="nonzero"/><path fill="#664500" d="M 156.296875 187.5 C 154.734375 187.5 153.140625 187.144531 151.652344 186.40625 C 115.0625 168.117188 77.996094 186.21875 77.628906 186.40625 C 72.472656 189 66.222656 186.886719 63.652344 181.75 C 61.078125 176.605469 63.160156 170.34375 68.308594 167.773438 C 70.203125 166.832031 115.167969 144.886719 160.972656 167.773438 C 166.121094 170.34375 168.207031 176.605469 165.632812 181.75 C 163.796875 185.394531 160.121094 187.5 156.296875 187.5 Z M 302.148438 187.5 C 300.585938 187.5 298.992188 187.144531 297.503906 186.40625 C 260.902344 168.117188 223.847656 186.21875 223.480469 186.40625 C 218.335938 188.988281 212.085938 186.894531 209.503906 181.75 C 206.929688 176.605469 209.011719 170.34375 214.160156 167.773438 C 216.054688 166.832031 261.050781 144.898438 306.824219 167.773438 C 311.972656 170.34375 314.058594 176.605469 311.484375 181.75 C 309.648438 185.394531 305.972656 187.5 302.148438 187.5 Z M 302.148438 187.5 " fill-opacity="1" fill-rule="nonzero"/><path fill="#5dadec" d="M 375.085938 354.164062 C 375.085938 354.503906 375.007812 354.847656 374.859375 355.1875 C 374.710938 355.527344 374.484375 355.867188 374.183594 356.207031 C 373.882812 356.546875 373.507812 356.882812 373.054688 357.21875 C 372.605469 357.558594 372.082031 357.894531 371.484375 358.226562 C 370.882812 358.5625 370.210938 358.894531 369.464844 359.226562 C 368.722656 359.558594 367.902344 359.886719 367.011719 360.210938 C 366.121094 360.535156 365.15625 360.859375 364.125 361.183594 C 363.089844 361.503906 361.984375 361.820312 360.8125 362.136719 C 359.636719 362.453125 358.394531 362.761719 357.082031 363.070312 C 355.769531 363.378906 354.390625 363.683594 352.945312 363.984375 C 351.496094 364.285156 349.984375 364.582031 348.40625 364.875 C 346.828125 365.167969 345.1875 365.453125 343.484375 365.738281 C 341.777344 366.023438 340.011719 366.300781 338.183594 366.574219 C 336.355469 366.847656 334.464844 367.117188 332.519531 367.378906 C 330.570312 367.644531 328.566406 367.902344 326.507812 368.152344 C 324.445312 368.40625 322.332031 368.65625 320.160156 368.894531 C 317.992188 369.136719 315.769531 369.371094 313.496094 369.601562 C 311.222656 369.828125 308.898438 370.050781 306.527344 370.269531 C 304.152344 370.484375 301.734375 370.695312 299.269531 370.898438 C 296.804688 371.101562 294.296875 371.296875 291.742188 371.488281 C 289.191406 371.675781 286.601562 371.859375 283.96875 372.03125 C 281.335938 372.207031 278.667969 372.375 275.960938 372.539062 C 273.253906 372.699219 270.511719 372.851562 267.738281 372.996094 C 264.964844 373.144531 262.160156 373.28125 259.324219 373.410156 C 256.488281 373.542969 253.625 373.664062 250.738281 373.78125 C 247.847656 373.894531 244.933594 374 241.996094 374.101562 C 239.058594 374.199219 236.101562 374.289062 233.125 374.375 C 230.148438 374.457031 227.15625 374.53125 224.144531 374.597656 C 221.136719 374.664062 218.113281 374.722656 215.078125 374.769531 C 212.042969 374.820312 208.996094 374.863281 205.941406 374.898438 C 202.890625 374.929688 199.828125 374.957031 196.761719 374.972656 C 193.699219 374.988281 190.632812 374.996094 187.5625 374.996094 C 184.492188 374.996094 181.425781 374.988281 178.363281 374.972656 C 175.296875 374.957031 172.234375 374.929688 169.183594 374.898438 C 166.128906 374.863281 163.082031 374.820312 160.046875 374.769531 C 157.011719 374.722656 153.988281 374.664062 150.976562 374.597656 C 147.96875 374.53125 144.976562 374.457031 141.996094 374.375 C 139.019531 374.289062 136.0625 374.199219 133.125 374.101562 C 130.191406 374 127.277344 373.894531 124.386719 373.78125 C 121.5 373.664062 118.636719 373.542969 115.800781 373.410156 C 112.964844 373.28125 110.160156 373.144531 107.386719 372.996094 C 104.609375 372.851562 101.871094 372.699219 99.164062 372.539062 C 96.457031 372.375 93.789062 372.207031 91.15625 372.03125 C 88.523438 371.859375 85.929688 371.675781 83.378906 371.484375 C 80.828125 371.296875 78.320312 371.101562 75.855469 370.898438 C 73.390625 370.695312 70.972656 370.484375 68.597656 370.269531 C 66.226562 370.050781 63.902344 369.828125 61.628906 369.601562 C 59.355469 369.371094 57.132812 369.136719 54.960938 368.894531 C 52.792969 368.65625 50.679688 368.40625 48.617188 368.152344 C 46.554688 367.902344 44.550781 367.644531 42.605469 367.378906 C 40.65625 367.117188 38.769531 366.847656 36.941406 366.574219 C 35.113281 366.300781 33.347656 366.023438 31.640625 365.738281 C 29.9375 365.453125 28.296875 365.167969 26.71875 364.875 C 25.140625 364.582031 23.628906 364.285156 22.179688 363.984375 C 20.734375 363.683594 19.355469 363.378906 18.042969 363.070312 C 16.730469 362.761719 15.488281 362.453125 14.3125 362.136719 C 13.140625 361.820312 12.035156 361.503906 11 361.183594 C 9.964844 360.859375 9.003906 360.535156 8.113281 360.210938 C 7.222656 359.886719 6.402344 359.558594 5.660156 359.226562 C 4.914062 358.894531 4.242188 358.5625 3.640625 358.226562 C 3.042969 357.894531 2.519531 357.558594 2.066406 357.21875 C 1.617188 356.882812 1.242188 356.546875 0.941406 356.207031 C 0.640625 355.867188 0.414062 355.527344 0.265625 355.1875 C 0.113281 354.847656 0.0390625 354.503906 0.0390625 354.164062 C 0.0390625 353.820312 0.113281 353.480469 0.265625 353.140625 C 0.414062 352.800781 0.640625 352.460938 0.941406 352.121094 C 1.242188 351.78125 1.617188 351.445312 2.066406 351.109375 C 2.519531 350.769531 3.042969 350.433594 3.640625 350.101562 C 4.242188 349.765625 4.914062 349.433594 5.660156 349.101562 C 6.402344 348.769531 7.222656 348.441406 8.113281 348.117188 C 9.003906 347.789062 9.964844 347.46875 11 347.144531 C 12.035156 346.824219 13.140625 346.507812 14.3125 346.191406 C 15.488281 345.875 16.730469 345.566406 18.042969 345.257812 C 19.355469 344.949219 20.734375 344.644531 22.179688 344.34375 C 23.628906 344.042969 25.140625 343.746094 26.71875 343.453125 C 28.296875 343.160156 29.9375 342.875 31.640625 342.589844 C 33.347656 342.304688 35.113281 342.027344 36.941406 341.753906 C 38.769531 341.480469 40.65625 341.210938 42.605469 340.949219 C 44.550781 340.683594 46.554688 340.425781 48.617188 340.175781 C 50.679688 339.921875 52.792969 339.671875 54.960938 339.433594 C 57.132812 339.191406 59.355469 338.957031 61.628906 338.726562 C 63.902344 338.5 66.226562 338.277344 68.597656 338.058594 C 70.972656 337.84375 73.390625 337.632812 75.855469 337.429688 C 78.320312 337.226562 80.828125 337.03125 83.378906 336.839844 C 85.929688 336.652344 88.523438 336.46875 91.15625 336.296875 C 93.789062 336.121094 96.457031 335.953125 99.164062 335.789062 C 101.871094 335.628906 104.609375 335.476562 107.386719 335.332031 C 110.160156 335.183594 112.964844 335.046875 115.800781 334.917969 C 118.636719 334.785156 121.5 334.664062 124.386719 334.546875 C 127.277344 334.433594 130.191406 334.328125 133.125 334.226562 C 136.0625 334.128906 139.019531 334.039062 141.996094 333.953125 C 144.976562 333.871094 147.96875 333.796875 150.976562 333.730469 C 153.988281 333.664062 157.011719 333.605469 160.046875 333.558594 C 163.082031 333.507812 166.128906 333.464844 169.183594 333.429688 C 172.234375 333.398438 175.296875 333.371094 178.363281 333.355469 C 181.425781 333.339844 184.492188 333.332031 187.5625 333.332031 C 190.632812 333.332031 193.699219 333.339844 196.761719 333.355469 C 199.828125 333.371094 202.890625 333.398438 205.941406 333.429688 C 208.996094 333.464844 212.042969 333.507812 215.078125 333.558594 C 218.113281 333.605469 221.136719 333.664062 224.144531 333.730469 C 227.15625 333.796875 230.148438 333.871094 233.125 333.953125 C 236.101562 334.039062 239.058594 334.128906 241.996094 334.226562 C 244.933594 334.328125 247.847656 334.433594 250.738281 334.546875 C 253.625 334.664062 256.488281 334.785156 259.324219 334.917969 C 262.160156 335.046875 264.964844 335.183594 267.738281 335.332031 C 270.511719 335.476562 273.253906 335.628906 275.960938 335.789062 C 278.667969 335.953125 281.335938 336.121094 283.96875 336.296875 C 286.601562 336.46875 289.191406 336.652344 291.742188 336.839844 C 294.296875 337.03125 296.804688 337.226562 299.269531 337.429688 C 301.734375 337.632812 304.152344 337.84375 306.527344 338.058594 C 308.898438 338.277344 311.222656 338.5 313.496094 338.726562 C 315.769531 338.957031 317.992188 339.191406 320.160156 339.433594 C 322.332031 339.671875 324.445312 339.921875 326.507812 340.175781 C 328.566406 340.425781 330.570312 340.683594 332.519531 340.949219 C 334.464844 341.210938 336.355469 341.480469 338.183594 341.753906 C 340.011719 342.027344 341.777344 342.304688 343.484375 342.589844 C 345.1875 342.875 346.828125 343.160156 348.40625 343.453125 C 349.984375 343.746094 351.496094 344.042969 352.945312 344.34375 C 354.390625 344.644531 355.769531 344.949219 357.082031 345.257812 C 358.394531 345.566406 359.636719 345.875 360.8125 346.191406 C 361.984375 346.507812 363.089844 346.824219 364.125 347.144531 C 365.15625 347.46875 366.121094 347.789062 367.011719 348.117188 C 367.902344 348.441406 368.722656 348.769531 369.464844 349.101562 C 370.210938 349.433594 370.882812 349.765625 371.484375 350.101562 C 372.082031 350.433594 372.605469 350.769531 373.054688 351.109375 C 373.507812 351.445312 373.882812 351.78125 374.183594 352.121094 C 374.484375 352.460938 374.710938 352.800781 374.859375 353.140625 C 375.007812 353.480469 375.085938 353.820312 375.085938 354.164062 Z M 375.085938 354.164062 " fill-opacity="1" fill-rule="nonzero"/><path fill="#e75a70" d="M 218.816406 281.25 C 218.816406 281.929688 218.765625 282.613281 218.664062 283.289062 C 218.566406 283.96875 218.414062 284.644531 218.214844 285.3125 C 218.015625 285.980469 217.765625 286.644531 217.46875 287.296875 C 217.171875 287.949219 216.828125 288.589844 216.4375 289.21875 C 216.046875 289.851562 215.605469 290.46875 215.125 291.066406 C 214.644531 291.671875 214.117188 292.253906 213.550781 292.824219 C 212.980469 293.390625 212.371094 293.9375 211.722656 294.464844 C 211.074219 294.992188 210.386719 295.496094 209.664062 295.980469 C 208.9375 296.460938 208.179688 296.921875 207.390625 297.351562 C 206.597656 297.785156 205.777344 298.191406 204.925781 298.570312 C 204.074219 298.949219 203.199219 299.300781 202.296875 299.621094 C 201.394531 299.945312 200.46875 300.234375 199.523438 300.496094 C 198.578125 300.757812 197.613281 300.984375 196.632812 301.183594 C 195.65625 301.382812 194.664062 301.546875 193.660156 301.683594 C 192.65625 301.8125 191.644531 301.914062 190.625 301.980469 C 189.609375 302.050781 188.585938 302.082031 187.5625 302.082031 C 186.539062 302.082031 185.515625 302.050781 184.5 301.980469 C 183.480469 301.914062 182.46875 301.8125 181.464844 301.683594 C 180.460938 301.546875 179.46875 301.382812 178.488281 301.183594 C 177.507812 300.984375 176.546875 300.757812 175.601562 300.496094 C 174.65625 300.234375 173.730469 299.945312 172.828125 299.621094 C 171.925781 299.300781 171.050781 298.949219 170.199219 298.570312 C 169.347656 298.191406 168.527344 297.785156 167.734375 297.351562 C 166.941406 296.921875 166.183594 296.460938 165.460938 295.980469 C 164.738281 295.496094 164.050781 294.992188 163.402344 294.464844 C 162.753906 293.9375 162.144531 293.390625 161.574219 292.824219 C 161.007812 292.253906 160.480469 291.671875 159.996094 291.066406 C 159.515625 290.46875 159.078125 289.851562 158.6875 289.21875 C 158.296875 288.589844 157.949219 287.949219 157.652344 287.296875 C 157.355469 286.644531 157.109375 285.980469 156.910156 285.3125 C 156.710938 284.644531 156.558594 283.96875 156.457031 283.289062 C 156.359375 282.613281 156.308594 281.929688 156.308594 281.25 C 156.308594 280.566406 156.359375 279.886719 156.457031 279.207031 C 156.558594 278.527344 156.710938 277.855469 156.910156 277.183594 C 157.109375 276.515625 157.355469 275.855469 157.652344 275.199219 C 157.949219 274.546875 158.296875 273.90625 158.6875 273.273438 C 159.078125 272.644531 159.515625 272.027344 159.996094 271.429688 C 160.480469 270.828125 161.007812 270.242188 161.574219 269.675781 C 162.144531 269.105469 162.753906 268.558594 163.402344 268.03125 C 164.050781 267.503906 164.738281 267 165.460938 266.515625 C 166.183594 266.035156 166.941406 265.578125 167.734375 265.144531 C 168.527344 264.710938 169.347656 264.304688 170.199219 263.925781 C 171.050781 263.546875 171.925781 263.195312 172.828125 262.875 C 173.730469 262.554688 174.65625 262.261719 175.601562 262 C 176.546875 261.742188 177.507812 261.511719 178.488281 261.3125 C 179.46875 261.117188 180.460938 260.949219 181.464844 260.816406 C 182.46875 260.683594 183.480469 260.582031 184.5 260.515625 C 185.515625 260.449219 186.539062 260.414062 187.5625 260.414062 C 188.585938 260.414062 189.609375 260.449219 190.625 260.515625 C 191.644531 260.582031 192.65625 260.683594 193.660156 260.816406 C 194.664062 260.949219 195.65625 261.117188 196.632812 261.3125 C 197.613281 261.511719 198.578125 261.742188 199.523438 262 C 200.46875 262.261719 201.394531 262.554688 202.296875 262.875 C 203.199219 263.195312 204.074219 263.546875 204.925781 263.925781 C 205.777344 264.304688 206.597656 264.710938 207.390625 265.144531 C 208.179688 265.578125 208.9375 266.035156 209.664062 266.515625 C 210.386719 267 211.074219 267.503906 211.722656 268.03125 C 212.371094 268.558594 212.980469 269.105469 213.550781 269.675781 C 214.117188 270.242188 214.644531 270.828125 215.125 271.429688 C 215.605469 272.027344 216.046875 272.644531 216.4375 273.273438 C 216.828125 273.90625 217.171875 274.546875 217.46875 275.199219 C 217.765625 275.855469 218.015625 276.515625 218.214844 277.183594 C 218.414062 277.855469 218.566406 278.527344 218.664062 279.207031 C 218.765625 279.886719 218.816406 280.566406 218.816406 281.25 Z M 218.816406 281.25 " fill-opacity="1" fill-rule="nonzero"/></svg>